<svg width="250" height="100" viewBox="0 0 300 100" fill="none" xmlns="http://www.w3.org/2000/svg">
  <g filter="url(#filter0_i_102_9)">
    <path d="M69.7987 49.5571C69.7987 68.0901 54.7747 83.1141 36.2416 83.1141C17.7086 83.1141 2.68457 68.0901 2.68457 49.5571C2.68457 31.024 17.7086 16 36.2416 16C54.7747 16 69.7987 31.024 69.7987 49.5571Z" fill="#212020"/>
    <path d="M63.0873 49.557C63.0873 64.3835 51.0681 76.4027 36.2416 76.4027C21.4152 76.4027 9.396 64.3835 9.396 49.557C9.396 34.7306 21.4152 22.7114 36.2416 22.7114C51.0681 22.7114 63.0873 34.7306 63.0873 49.557Z" stroke="white" stroke-width="13.4228"/>
  </g>
  <g filter="url(#filter1_i_102_9)">
    <path d="M116.15 72.8188H113.251L86.7061 32.357V72.8188H83.8068V27.6537H86.7061L113.251 67.9866V27.6537H116.15V72.8188ZM124.977 55.294C124.977 51.6859 125.685 48.5289 127.103 45.8228C128.563 43.1168 130.56 41.0336 133.095 39.5732C135.672 38.1127 138.593 37.3825 141.857 37.3825C145.551 37.3825 148.687 38.2846 151.264 40.0886C153.841 41.8926 155.645 44.1906 156.676 46.9825V37.8336H159.575V72.8188H156.676V63.6054C155.645 66.4403 153.82 68.7812 151.199 70.6282C148.622 72.4322 145.508 73.3342 141.857 73.3342C138.593 73.3342 135.672 72.604 133.095 71.1436C130.56 69.6403 128.563 67.5356 127.103 64.8295C125.685 62.0805 124.977 58.902 124.977 55.294ZM156.676 55.294C156.676 52.2443 156.032 49.5597 154.743 47.2403C153.497 44.8778 151.779 43.0738 149.589 41.8282C147.398 40.5396 144.95 39.8953 142.244 39.8953C139.409 39.8953 136.918 40.5181 134.77 41.7638C132.622 42.9664 130.947 44.7275 129.744 47.047C128.542 49.3664 127.94 52.1154 127.94 55.294C127.94 58.4725 128.542 61.2215 129.744 63.5409C130.947 65.8604 132.622 67.6429 134.77 68.8886C136.96 70.1342 139.452 70.757 142.244 70.757C144.95 70.757 147.398 70.1342 149.589 68.8886C151.822 67.6 153.562 65.796 154.807 63.4765C156.053 61.1141 156.676 58.3866 156.676 55.294ZM174.449 40.3463V63.4765C174.449 66.0537 174.922 67.8362 175.866 68.8242C176.811 69.7691 178.487 70.2416 180.892 70.2416H184.822V72.8188H180.441C177.391 72.8188 175.136 72.1101 173.676 70.6926C172.258 69.2322 171.55 66.8268 171.55 63.4765V40.3463H166.266V37.8336H171.55V28.9423H174.449V37.8336H184.822V40.3463H174.449ZM204.13 73.3342C200.222 73.3342 197.022 72.4752 194.53 70.757C192.082 69.0389 190.707 66.5906 190.407 63.4121H193.371C193.585 65.6886 194.616 67.4926 196.463 68.8242C198.353 70.1557 200.909 70.8215 204.13 70.8215C206.793 70.8215 208.898 70.1557 210.444 68.8242C212.034 67.4497 212.828 65.7745 212.828 63.7987C212.828 62.4242 212.399 61.3074 211.54 60.4483C210.724 59.5463 209.693 58.8591 208.447 58.3866C207.201 57.9141 205.505 57.3987 203.357 56.8403C200.78 56.153 198.697 55.4872 197.107 54.843C195.518 54.1557 194.165 53.1463 193.048 51.8148C191.932 50.4832 191.373 48.7007 191.373 46.4671C191.373 44.8349 191.867 43.3315 192.855 41.957C193.843 40.5396 195.217 39.4228 196.979 38.6067C198.74 37.7906 200.737 37.3825 202.971 37.3825C206.622 37.3825 209.564 38.306 211.797 40.153C214.074 41.957 215.298 44.4698 215.47 47.6913H212.571C212.442 45.3718 211.54 43.4819 209.864 42.0215C208.189 40.5611 205.87 39.8309 202.906 39.8309C200.415 39.8309 198.353 40.4752 196.721 41.7638C195.089 43.0523 194.273 44.6201 194.273 46.4671C194.273 48.0993 194.724 49.4309 195.626 50.4617C196.571 51.4497 197.709 52.2228 199.04 52.7812C200.415 53.2966 202.219 53.855 204.452 54.4564C206.901 55.1007 208.855 55.745 210.315 56.3893C211.819 56.9906 213.086 57.8926 214.117 59.0953C215.148 60.255 215.663 61.8228 215.663 63.7987C215.663 65.6027 215.169 67.2349 214.181 68.6953C213.193 70.1557 211.819 71.294 210.058 72.1101C208.297 72.9262 206.321 73.3342 204.13 73.3342ZM254.068 37.8336V72.8188H251.169V65.2161C250.181 67.8792 248.527 69.9195 246.207 71.3369C243.931 72.7114 241.311 73.3987 238.347 73.3987C234.181 73.3987 230.766 72.1315 228.103 69.5973C225.483 67.0201 224.173 63.2188 224.173 58.1933V37.8336H227.007V58C227.007 62.1664 228.06 65.3664 230.164 67.6C232.269 69.7906 235.126 70.8859 238.734 70.8859C242.513 70.8859 245.52 69.6832 247.754 67.2779C250.03 64.8725 251.169 61.3074 251.169 56.5825V37.8336H254.068ZM294.211 37.8336V72.8188H291.311V65.2161C290.324 67.8792 288.67 69.9195 286.35 71.3369C284.074 72.7114 281.454 73.3987 278.49 73.3987C274.324 73.3987 270.909 72.1315 268.246 69.5973C265.626 67.0201 264.315 63.2188 264.315 58.1933V37.8336H267.15V58C267.15 62.1664 268.203 65.3664 270.307 67.6C272.412 69.7906 275.269 70.8859 278.877 70.8859C282.656 70.8859 285.663 69.6832 287.897 67.2779C290.173 64.8725 291.311 61.3074 291.311 56.5825V37.8336H294.211Z" fill="white"/>
  </g>
  <defs>
    <filter id="filter0_i_102_9" x="2.68457" y="16" width="67.1141" height="69.7987" filterUnits="userSpaceOnUse" color-interpolation-filters="sRGB">
      <feFlood flood-opacity="0" result="BackgroundImageFix"/>
      <feBlend mode="normal" in="SourceGraphic" in2="BackgroundImageFix" result="shape"/>
      <feColorMatrix in="SourceAlpha" type="matrix" values="0 0 0 0 0 0 0 0 0 0 0 0 0 0 0 0 0 0 127 0" result="hardAlpha"/>
      <feOffset dy="2.68456"/>
      <feGaussianBlur stdDeviation="1.34228"/>
      <feComposite in2="hardAlpha" operator="arithmetic" k2="-1" k3="1"/>
      <feColorMatrix type="matrix" values="0 0 0 0 0 0 0 0 0 0 0 0 0 0 0 0 0 0 0.25 0"/>
      <feBlend mode="normal" in2="shape" result="effect1_innerShadow_102_9"/>
    </filter>
    <filter id="filter1_i_102_9" x="83.8068" y="27.6537" width="210.404" height="48.4295" filterUnits="userSpaceOnUse" color-interpolation-filters="sRGB">
      <feFlood flood-opacity="0" result="BackgroundImageFix"/>
      <feBlend mode="normal" in="SourceGraphic" in2="BackgroundImageFix" result="shape"/>
      <feColorMatrix in="SourceAlpha" type="matrix" values="0 0 0 0 0 0 0 0 0 0 0 0 0 0 0 0 0 0 127 0" result="hardAlpha"/>
      <feOffset dy="2.68456"/>
      <feGaussianBlur stdDeviation="1.34228"/>
      <feComposite in2="hardAlpha" operator="arithmetic" k2="-1" k3="1"/>
      <feColorMatrix type="matrix" values="0 0 0 0 0 0 0 0 0 0 0 0 0 0 0 0 0 0 0.25 0"/>
      <feBlend mode="normal" in2="shape" result="effect1_innerShadow_102_9"/>
    </filter>
  </defs>
</svg>
